<svg xmlns="http://www.w3.org/2000/svg" viewBox="0 0 720 420" width="720" height="420" font-family="Cambria, Calibri, Arial, DejaVu Sans, sans-serif">
<text x="360.0" y="22.0" font-size="14" fill="#6B7280" text-anchor="middle" font-weight="bold">The same selection circuit, twice</text>
<text x="56.0" y="122.0" font-size="12" fill="#6B7280" text-anchor="start" font-weight="bold">lamprey</text>
<rect x="150.0" y="62.0" width="421.4" height="129.0" fill="#f4f7fb" stroke="#e2e6ec" stroke-width="1.2" rx="10"/>
<rect x="175.8" y="75.8" width="361.2" height="20.6" fill="#fdeee2" stroke="#FF5F05" stroke-width="1.6" rx="4"/>
<text x="356.4" y="90.4" font-size="11" fill="#b8460a" text-anchor="middle" font-weight="normal">pallium</text>
<rect x="201.6" y="113.6" width="103.2" height="29.2" fill="#e8eef6" stroke="#13294B" stroke-width="1.6" rx="4"/>
<text x="253.2" y="132.2" font-size="11" fill="#1a1a1a" text-anchor="middle" font-weight="normal">striatum</text>
<line x1="253.2" y1="96.4" x2="253.2" y2="105.9" stroke="#5b6470" stroke-width="1.4" stroke-linecap="butt"/>
<polygon points="253.2,111.9 250.2,105.9 256.2,105.9" fill="#5b6470"/>
<rect x="408.0" y="115.3" width="63.6" height="29.2" fill="#eef0f2" stroke="#6B7280" stroke-width="1.6" rx="4"/>
<text x="439.8" y="133.9" font-size="10" fill="#1a1a1a" text-anchor="middle" font-weight="normal">output</text>
<text x="439.8" y="166.9" font-size="10" fill="#5b6470" text-anchor="middle" font-weight="normal">one nucleus</text>
<line x1="304.8" y1="122.2" x2="399.3" y2="126.2" stroke="#13294B" stroke-width="1.6" stroke-linecap="butt"/>
<polygon points="406.3,126.5 399.1,129.6 399.4,122.8" fill="#13294B"/>
<text x="354.7" y="113.6" font-size="10" fill="#13294B" text-anchor="middle" font-weight="bold">direct</text>
<line x1="304.8" y1="137.7" x2="400.3" y2="135.3" stroke="#5b6470" stroke-width="1.4" stroke-linecap="butt" stroke-dasharray="4 3"/>
<polygon points="406.3,135.1 400.4,138.3 400.2,132.3" fill="#5b6470"/>
<text x="354.7" y="154.9" font-size="10" fill="#5b6470" text-anchor="middle" font-weight="bold">indirect</text>
<line x1="473.4" y1="129.9" x2="531.7" y2="129.9" stroke="#6B7280" stroke-width="1.6" stroke-linecap="butt"/>
<polygon points="538.7,129.9 531.7,133.3 531.7,126.5" fill="#6B7280"/>
<text x="519.8" y="148.0" font-size="10" fill="#5b6470" text-anchor="middle" font-weight="normal">to the</text>
<text x="519.8" y="159.2" font-size="10" fill="#5b6470" text-anchor="middle" font-weight="normal">brainstem</text>
<text x="56.0" y="296.0" font-size="12" fill="#6B7280" text-anchor="start" font-weight="bold">mouse</text>
<rect x="150.0" y="236.0" width="490.0" height="150.0" fill="#f4f7fb" stroke="#e2e6ec" stroke-width="1.2" rx="10"/>
<rect x="180.0" y="252.0" width="420.0" height="24.0" fill="#fdeee2" stroke="#FF5F05" stroke-width="1.6" rx="4"/>
<text x="390.0" y="269.0" font-size="11" fill="#b8460a" text-anchor="middle" font-weight="normal">pallium</text>
<rect x="210.0" y="296.0" width="120.0" height="34.0" fill="#e8eef6" stroke="#13294B" stroke-width="1.6" rx="4"/>
<text x="270.0" y="317.0" font-size="11" fill="#1a1a1a" text-anchor="middle" font-weight="normal">striatum</text>
<line x1="270.0" y1="276.0" x2="270.0" y2="288.0" stroke="#5b6470" stroke-width="1.4" stroke-linecap="butt"/>
<polygon points="270.0,294.0 267.0,288.0 273.0,288.0" fill="#5b6470"/>
<rect x="450.0" y="288.0" width="74.0" height="24.0" fill="#eef0f2" stroke="#6B7280" stroke-width="1.6" rx="4"/>
<text x="487.0" y="304.0" font-size="10" fill="#1a1a1a" text-anchor="middle" font-weight="normal">output</text>
<rect x="450.0" y="316.0" width="74.0" height="24.0" fill="#eef0f2" stroke="#6B7280" stroke-width="1.6" rx="4"/>
<text x="487.0" y="332.0" font-size="10" fill="#1a1a1a" text-anchor="middle" font-weight="normal">output</text>
<text x="487.0" y="358.0" font-size="10" fill="#5b6470" text-anchor="middle" font-weight="normal">two nuclei</text>
<line x1="330.0" y1="306.0" x2="441.0" y2="296.6" stroke="#13294B" stroke-width="1.6" stroke-linecap="butt"/>
<polygon points="448.0,296.0 441.3,300.0 440.7,293.2" fill="#13294B"/>
<text x="388.0" y="296.0" font-size="10" fill="#13294B" text-anchor="middle" font-weight="bold">direct</text>
<line x1="330.0" y1="324.0" x2="442.0" y2="333.5" stroke="#5b6470" stroke-width="1.4" stroke-linecap="butt" stroke-dasharray="4 3"/>
<polygon points="448.0,334.0 441.8,336.5 442.3,330.5" fill="#5b6470"/>
<text x="388.0" y="344.0" font-size="10" fill="#5b6470" text-anchor="middle" font-weight="bold">indirect</text>
<line x1="526.0" y1="315.0" x2="595.0" y2="315.0" stroke="#6B7280" stroke-width="1.6" stroke-linecap="butt"/>
<polygon points="602.0,315.0 595.0,318.4 595.0,311.6" fill="#6B7280"/>
<text x="580.0" y="336.0" font-size="10" fill="#5b6470" text-anchor="middle" font-weight="normal">to the</text>
<text x="580.0" y="349.0" font-size="10" fill="#5b6470" text-anchor="middle" font-weight="normal">brainstem</text>
<text x="360.0" y="408.0" font-size="11" fill="#5b6470" text-anchor="middle" font-weight="normal" font-style="italic">same transmitters, same connections, same two routes — what differs is how many copies</text>
</svg>
