<svg xmlns="http://www.w3.org/2000/svg" viewBox="0 0 880 486" width="880" height="486" font-family="Cambria, Calibri, Arial, sans-serif" role="img">
<rect x="0" y="0" width="880" height="156" fill="#f4f7fb" stroke="#e2e6ec" stroke-width="1"/>
<rect x="0" y="0" width="6" height="156" fill="#13294B"/>
<text x="24" y="32" font-size="17" font-weight="bold" fill="#13294B">Computational</text>
<text x="24" y="55" font-size="13" fill="#5b6470" font-style="italic">What problem is being</text>
<text x="24" y="73" font-size="13" fill="#5b6470" font-style="italic">solved, and why?</text>
<text x="24" y="97" font-size="12.5" fill="#5b6470">evolutionary biology,</text>
<text x="24" y="113" font-size="12.5" fill="#5b6470">behavioral ecology,</text>
<text x="24" y="129" font-size="12.5" fill="#5b6470">anthropology</text>
<rect x="0" y="156" width="880" height="174" fill="#f4f7fb" stroke="#e2e6ec" stroke-width="1"/>
<rect x="0" y="156" width="6" height="174" fill="#FF5F05"/>
<text x="24" y="188" font-size="17" font-weight="bold" fill="#b8460a">Algorithmic</text>
<text x="24" y="211" font-size="13" fill="#5b6470" font-style="italic">By what strategy?</text>
<text x="24" y="235" font-size="12.5" fill="#5b6470">cognitive psychology,</text>
<text x="24" y="251" font-size="12.5" fill="#5b6470">artificial intelligence</text>
<rect x="0" y="330" width="880" height="156" fill="#f4f7fb" stroke="#e2e6ec" stroke-width="1"/>
<rect x="0" y="330" width="6" height="156" fill="#6B7280"/>
<text x="24" y="362" font-size="17" font-weight="bold" fill="#6B7280">Implementational</text>
<text x="24" y="385" font-size="13" fill="#5b6470" font-style="italic">In what physical stuff,</text>
<text x="24" y="403" font-size="13" fill="#5b6470" font-style="italic">and how?</text>
<text x="24" y="427" font-size="12.5" fill="#5b6470">neuroscience</text>
<path d="M 544.0 115.0 C 544.0 149.0, 295.0 178.0, 295.0 212.0" fill="none" stroke="#9aa4b2" stroke-width="1.4"/>
<path d="M 544.0 115.0 C 544.0 149.0, 461.0 178.0, 461.0 212.0" fill="none" stroke="#9aa4b2" stroke-width="1.4"/>
<path d="M 544.0 115.0 C 544.0 149.0, 627.0 178.0, 627.0 212.0" fill="none" stroke="#9aa4b2" stroke-width="1.4"/>
<path d="M 544.0 115.0 C 544.0 149.0, 793.0 178.0, 793.0 212.0" fill="none" stroke="#9aa4b2" stroke-width="1.4"/>
<path d="M 295.0 274.0 C 295.0 304.0, 295.0 349.0, 295.0 379.0" fill="none" stroke="#9aa4b2" stroke-width="1.4"/>
<path d="M 295.0 274.0 C 295.0 304.0, 461.0 349.0, 461.0 379.0" fill="none" stroke="#9aa4b2" stroke-width="1.4"/>
<path d="M 295.0 274.0 C 295.0 304.0, 627.0 349.0, 627.0 379.0" fill="none" stroke="#9aa4b2" stroke-width="1.4"/>
<rect x="346.0" y="41.0" width="396" height="74" rx="7" fill="#ffffff" stroke="#e2e6ec" stroke-width="1.2"/>
<text x="544.0" y="72.60000000000001" font-size="15" font-weight="normal" fill="#1a1a1a" text-anchor="middle">Addition: combine quantities into a total.</text>
<text x="544.0" y="94.2" font-size="15" font-weight="normal" fill="#1a1a1a" text-anchor="middle">Order does not matter; adding nothing changes nothing.</text>
<rect x="219.0" y="212.0" width="152" height="62" rx="7" fill="#ffffff" stroke="#e2e6ec" stroke-width="1.2"/>
<text x="295.0" y="237.78" font-size="14.5" font-weight="normal" fill="#1a1a1a" text-anchor="middle">Decimal columns,</text>
<text x="295.0" y="258.66" font-size="14.5" font-weight="normal" fill="#1a1a1a" text-anchor="middle">carrying</text>
<rect x="385.0" y="212.0" width="152" height="62" rx="7" fill="#ffffff" stroke="#e2e6ec" stroke-width="1.2"/>
<text x="461.0" y="248.22" font-size="14.5" font-weight="normal" fill="#1a1a1a" text-anchor="middle">Binary place value</text>
<rect x="551.0" y="212.0" width="152" height="62" rx="7" fill="#ffffff" stroke="#e2e6ec" stroke-width="1.2"/>
<text x="627.0" y="248.22" font-size="14.5" font-weight="normal" fill="#1a1a1a" text-anchor="middle">Beads on an abacus</text>
<rect x="717.0" y="212.0" width="152" height="62" rx="7" fill="#ffffff" stroke="#e2e6ec" stroke-width="1.2"/>
<text x="793.0" y="237.78" font-size="14.5" font-weight="normal" fill="#1a1a1a" text-anchor="middle">Counting on</text>
<text x="793.0" y="258.66" font-size="14.5" font-weight="normal" fill="#1a1a1a" text-anchor="middle">fingers</text>
<rect x="219.0" y="379.0" width="152" height="58" rx="7" fill="#ffffff" stroke="#e2e6ec" stroke-width="1.2"/>
<text x="295.0" y="402.78000000000003" font-size="14.5" font-weight="normal" fill="#1a1a1a" text-anchor="middle">A child with a</text>
<text x="295.0" y="423.66" font-size="14.5" font-weight="normal" fill="#1a1a1a" text-anchor="middle">pencil</text>
<rect x="385.0" y="379.0" width="152" height="58" rx="7" fill="#ffffff" stroke="#e2e6ec" stroke-width="1.2"/>
<text x="461.0" y="413.22" font-size="14.5" font-weight="normal" fill="#1a1a1a" text-anchor="middle">Brass gears</text>
<rect x="551.0" y="379.0" width="152" height="58" rx="7" fill="#ffffff" stroke="#e2e6ec" stroke-width="1.2"/>
<text x="627.0" y="413.22" font-size="14.5" font-weight="normal" fill="#1a1a1a" text-anchor="middle">Silicon circuits</text>
<text x="717.0" y="402.0" font-size="12.5" fill="#5b6470" font-style="italic">the same expansion</text>
<text x="717.0" y="419.0" font-size="12.5" fill="#5b6470" font-style="italic">could be drawn under</text>
<text x="717.0" y="436.0" font-size="12.5" fill="#5b6470" font-style="italic">any of the four</text>
</svg>