<svg xmlns="http://www.w3.org/2000/svg" viewBox="0 0 720 400" width="720" height="400" font-family="Cambria, Calibri, Arial, sans-serif">
<text x="360.0" y="26.0" font-size="14" fill="#1a1a1a" text-anchor="middle" font-weight="bold">One real circuit that steers</text>
<text x="110.0" y="56.0" font-size="12" fill="#5b6470" text-anchor="middle" font-weight="normal">sensory neurons</text>
<text x="300.0" y="56.0" font-size="12" fill="#5b6470" text-anchor="middle" font-weight="normal">interneurons</text>
<text x="490.0" y="56.0" font-size="12" fill="#5b6470" text-anchor="middle" font-weight="normal">motor neurons</text>
<circle cx="110.0" cy="110.0" r="13.0" fill="#ffffff" stroke="#1a1a1a" stroke-width="2"/>
<text x="86.0" y="114.0" font-size="11" fill="#5b6470" text-anchor="end" font-weight="normal">attractant</text>
<circle cx="110.0" cy="165.0" r="13.0" fill="#ffffff" stroke="#1a1a1a" stroke-width="2"/>
<text x="86.0" y="169.0" font-size="11" fill="#5b6470" text-anchor="end" font-weight="normal">attractant</text>
<circle cx="110.0" cy="250.0" r="13.0" fill="#ffffff" stroke="#1a1a1a" stroke-width="2"/>
<text x="86.0" y="254.0" font-size="11" fill="#5b6470" text-anchor="end" font-weight="normal">copper</text>
<circle cx="110.0" cy="305.0" r="13.0" fill="#ffffff" stroke="#1a1a1a" stroke-width="2"/>
<text x="86.0" y="309.0" font-size="11" fill="#5b6470" text-anchor="end" font-weight="normal">copper</text>
<circle cx="300.0" cy="150.0" r="16.0" fill="#ffffff" stroke="#1a1a1a" stroke-width="2"/>
<circle cx="300.0" cy="230.0" r="16.0" fill="#ffffff" stroke="#1a1a1a" stroke-width="2"/>
<circle cx="300.0" cy="300.0" r="16.0" fill="#ffffff" stroke="#1a1a1a" stroke-width="2"/>
<circle cx="490.0" cy="150.0" r="13.0" fill="#ffffff" stroke="#1a1a1a" stroke-width="2"/>
<text x="490.0" y="126.0" font-size="11" fill="#5b6470" text-anchor="middle" font-weight="normal">forward</text>
<circle cx="490.0" cy="290.0" r="13.0" fill="#ffffff" stroke="#1a1a1a" stroke-width="2"/>
<text x="490.0" y="266.0" font-size="11" fill="#5b6470" text-anchor="middle" font-weight="normal">reverse</text>
<line x1="122.7" y1="112.7" x2="278.5" y2="145.5" stroke="#13294B" stroke-width="2.0"/>
<polygon points="287.3,147.3 277.5,149.9 279.4,141.1" fill="#13294B"/>
<line x1="123.0" y1="164.0" x2="278.1" y2="151.7" stroke="#13294B" stroke-width="2.0"/>
<polygon points="287.0,151.0 278.4,156.2 277.7,147.2" fill="#13294B"/>
<line x1="122.6" y1="253.3" x2="278.7" y2="294.4" stroke="#13294B" stroke-width="2.0"/>
<polygon points="287.4,296.7 277.6,298.8 279.9,290.0" fill="#13294B"/>
<line x1="123.0" y1="304.7" x2="278.0" y2="300.6" stroke="#13294B" stroke-width="2.0"/>
<polygon points="287.0,300.3 278.1,305.1 277.9,296.1" fill="#13294B"/>
<line x1="122.3" y1="169.2" x2="279.2" y2="222.9" stroke="#13294B" stroke-width="2.0"/>
<polygon points="287.7,225.8 277.7,227.1 280.6,218.6" fill="#13294B"/>
<line x1="122.9" y1="248.6" x2="278.1" y2="232.3" stroke="#13294B" stroke-width="2.0"/>
<polygon points="287.1,231.4 278.6,236.8 277.6,227.8" fill="#13294B"/>
<line x1="316.0" y1="150.0" x2="465.0" y2="150.0" stroke="#13294B" stroke-width="2.0"/>
<polygon points="474.0,150.0 465.0,154.5 465.0,145.5" fill="#13294B"/>
<line x1="314.7" y1="223.8" x2="467.0" y2="159.7" stroke="#13294B" stroke-width="2.0"/>
<polygon points="475.3,156.2 468.7,163.8 465.2,155.6" fill="#13294B"/>
<line x1="316.0" y1="299.2" x2="465.0" y2="291.3" stroke="#13294B" stroke-width="2.0"/>
<polygon points="474.0,290.8 465.3,295.8 464.8,286.8" fill="#13294B"/>
<line x1="315.3" y1="234.8" x2="466.2" y2="282.5" stroke="#13294B" stroke-width="2.0"/>
<polygon points="474.7,285.2 464.8,286.8 467.5,278.2" fill="#13294B"/>
<rect x="600" y="120" width="26" height="200" fill="#6B7280" opacity="0.25" rx="4"/>
<text x="626" y="220" font-size="12" fill="#5b6470" text-anchor="middle" transform="rotate(-90 626 220)">body-wall muscle</text>
<line x1="503.0" y1="150.0" x2="574.0" y2="150.0" stroke="#13294B" stroke-width="2.0"/>
<polygon points="583.0,150.0 574.0,154.5 574.0,145.5" fill="#13294B"/>
<line x1="503.0" y1="290.0" x2="574.0" y2="290.0" stroke="#13294B" stroke-width="2.0"/>
<polygon points="583.0,290.0 574.0,294.5 574.0,285.5" fill="#13294B"/>
<text x="360.0" y="360.0" font-size="12" fill="#5b6470" text-anchor="middle" font-weight="normal">Which route a signal feeds is what makes it good news or bad.</text>
</svg>
