<svg xmlns="http://www.w3.org/2000/svg" viewBox="0 0 760 420" width="760" height="420" font-family="Cambria, Calibri, Arial, sans-serif">
<text x="380.0" y="26.0" font-size="14" fill="#1a1a1a" text-anchor="middle" font-weight="bold">Five wiring patterns, and between them they do the work</text>
<rect x="40.0" y="60.0" width="220.0" height="150.0" fill="none" stroke="#e2e6ec" rx="4"/>
<text x="150.0" y="52.0" font-size="13" fill="#b8460a" text-anchor="middle" font-weight="bold">Convergence</text>
<circle cx="85.0" cy="92.0" r="13.0" fill="#ffffff" stroke="#1a1a1a" stroke-width="2"/>
<line x1="97.2" y1="96.4" x2="184.3" y2="127.6" stroke="#13294B" stroke-width="2.0"/>
<polygon points="192.8,130.6 182.8,131.8 185.8,123.3" fill="#13294B"/>
<circle cx="85.0" cy="135.0" r="13.0" fill="#ffffff" stroke="#1a1a1a" stroke-width="2"/>
<line x1="98.0" y1="135.0" x2="183.0" y2="135.0" stroke="#13294B" stroke-width="2.0"/>
<polygon points="192.0,135.0 183.0,139.5 183.0,130.5" fill="#13294B"/>
<circle cx="85.0" cy="178.0" r="13.0" fill="#ffffff" stroke="#1a1a1a" stroke-width="2"/>
<line x1="97.2" y1="173.6" x2="184.3" y2="142.4" stroke="#13294B" stroke-width="2.0"/>
<polygon points="192.8,139.4 185.8,146.7 182.8,138.2" fill="#13294B"/>
<circle cx="205.0" cy="135.0" r="13.0" fill="#ffffff" stroke="#1a1a1a" stroke-width="2"/>
<rect x="280.0" y="60.0" width="220.0" height="150.0" fill="none" stroke="#e2e6ec" rx="4"/>
<text x="390.0" y="52.0" font-size="13" fill="#b8460a" text-anchor="middle" font-weight="bold">Divergence</text>
<circle cx="335.0" cy="135.0" r="13.0" fill="#ffffff" stroke="#1a1a1a" stroke-width="2"/>
<line x1="347.2" y1="130.6" x2="434.3" y2="99.4" stroke="#13294B" stroke-width="2.0"/>
<polygon points="442.8,96.4 435.8,103.7 432.8,95.2" fill="#13294B"/>
<circle cx="455.0" cy="92.0" r="13.0" fill="#ffffff" stroke="#1a1a1a" stroke-width="2"/>
<line x1="348.0" y1="135.0" x2="433.0" y2="135.0" stroke="#13294B" stroke-width="2.0"/>
<polygon points="442.0,135.0 433.0,139.5 433.0,130.5" fill="#13294B"/>
<circle cx="455.0" cy="135.0" r="13.0" fill="#ffffff" stroke="#1a1a1a" stroke-width="2"/>
<line x1="347.2" y1="139.4" x2="434.3" y2="170.6" stroke="#13294B" stroke-width="2.0"/>
<polygon points="442.8,173.6 432.8,174.8 435.8,166.3" fill="#13294B"/>
<circle cx="455.0" cy="178.0" r="13.0" fill="#ffffff" stroke="#1a1a1a" stroke-width="2"/>
<rect x="520.0" y="60.0" width="220.0" height="150.0" fill="none" stroke="#e2e6ec" rx="4"/>
<text x="630.0" y="52.0" font-size="13" fill="#b8460a" text-anchor="middle" font-weight="bold">Lateral inhibition</text>
<circle cx="565.0" cy="105.0" r="13.0" fill="#ffffff" stroke="#1a1a1a" stroke-width="2"/>
<circle cx="565.0" cy="175.0" r="13.0" fill="#ffffff" stroke="#1a1a1a" stroke-width="2"/>
<line x1="565.0" y1="118.0" x2="565.0" y2="153.0" stroke="#13294B" stroke-width="2.0"/>
<polygon points="565.0,162.0 560.5,153.0 569.5,153.0" fill="#13294B"/>
<circle cx="630.0" cy="105.0" r="13.0" fill="#ffffff" stroke="#1a1a1a" stroke-width="2"/>
<circle cx="630.0" cy="175.0" r="13.0" fill="#ffffff" stroke="#1a1a1a" stroke-width="2"/>
<line x1="630.0" y1="118.0" x2="630.0" y2="153.0" stroke="#13294B" stroke-width="2.0"/>
<polygon points="630.0,162.0 625.5,153.0 634.5,153.0" fill="#13294B"/>
<circle cx="695.0" cy="105.0" r="13.0" fill="#ffffff" stroke="#1a1a1a" stroke-width="2"/>
<circle cx="695.0" cy="175.0" r="13.0" fill="#ffffff" stroke="#1a1a1a" stroke-width="2"/>
<line x1="695.0" y1="118.0" x2="695.0" y2="153.0" stroke="#13294B" stroke-width="2.0"/>
<polygon points="695.0,162.0 690.5,153.0 699.5,153.0" fill="#13294B"/>
<line x1="621.2" y1="114.5" x2="577.9" y2="161.1" stroke="#D50032" stroke-width="2.0"/>
<line x1="573.5" y1="157.0" x2="582.3" y2="165.2" stroke="#D50032" stroke-width="3"/>
<line x1="638.8" y1="114.5" x2="682.1" y2="161.1" stroke="#D50032" stroke-width="2.0"/>
<line x1="677.7" y1="165.2" x2="686.5" y2="157.0" stroke="#D50032" stroke-width="3"/>
<rect x="40.0" y="240.0" width="220.0" height="150.0" fill="none" stroke="#e2e6ec" rx="4"/>
<text x="150.0" y="232.0" font-size="13" fill="#b8460a" text-anchor="middle" font-weight="bold">Mutual inhibition</text>
<circle cx="105.0" cy="315.0" r="13.0" fill="#ffffff" stroke="#1a1a1a" stroke-width="2"/>
<text x="105.0" y="319.0" font-size="12" fill="#1a1a1a" text-anchor="middle" font-weight="normal">A</text>
<circle cx="195.0" cy="315.0" r="13.0" fill="#ffffff" stroke="#1a1a1a" stroke-width="2"/>
<text x="195.0" y="319.0" font-size="12" fill="#1a1a1a" text-anchor="middle" font-weight="normal">B</text>
<path d="M 105.0 303.0 q 45 -34 90 0" fill="none" stroke="#D50032" stroke-width="2"/>
<line x1="189.0" y1="298.0" x2="201.0" y2="298.0" stroke="#D50032" stroke-width="3"/>
<path d="M 195.0 327.0 q -45 34 -90 0" fill="none" stroke="#D50032" stroke-width="2"/>
<line x1="99.0" y1="332.0" x2="111.0" y2="332.0" stroke="#D50032" stroke-width="3"/>
<rect x="280.0" y="240.0" width="220.0" height="150.0" fill="none" stroke="#e2e6ec" rx="4"/>
<text x="390.0" y="232.0" font-size="13" fill="#b8460a" text-anchor="middle" font-weight="bold">Feedback loop</text>
<circle cx="345.0" cy="315.0" r="13.0" fill="#ffffff" stroke="#1a1a1a" stroke-width="2"/>
<circle cx="435.0" cy="315.0" r="13.0" fill="#ffffff" stroke="#1a1a1a" stroke-width="2"/>
<line x1="358.0" y1="315.0" x2="413.0" y2="315.0" stroke="#13294B" stroke-width="2.0"/>
<polygon points="422.0,315.0 413.0,319.5 413.0,310.5" fill="#13294B"/>
<path d="M 435.0 328.0 q -45 40 -90 0" fill="none" stroke="#13294B" stroke-width="2"/>
<polygon points="345.0,328.0 356.0,334.0 354.0,320.0" fill="#13294B"/>
<line x1="490.0" y1="300.0" x2="533.0" y2="300.0" stroke="#13294B" stroke-width="2.0"/>
<polygon points="542.0,300.0 533.0,304.5 533.0,295.5" fill="#13294B"/>
<text x="552.0" y="304.0" font-size="12" fill="#1a1a1a" text-anchor="start" font-weight="normal">excitatory</text>
<line x1="640.0" y1="300.0" x2="686.0" y2="300.0" stroke="#D50032" stroke-width="2.0"/>
<line x1="686.0" y1="306.0" x2="686.0" y2="294.0" stroke="#D50032" stroke-width="3"/>
<text x="704.0" y="304.0" font-size="12" fill="#1a1a1a" text-anchor="start" font-weight="normal">inhibitory</text>
</svg>
