<svg xmlns="http://www.w3.org/2000/svg" viewBox="0 0 780 420" width="780" height="420" font-family="Cambria, Calibri, Arial, sans-serif" role="img">
<rect x="0" y="0" width="780" height="420" fill="#ffffff"/>
<rect x="0.0" y="30.0" width="780.0" height="150.0" rx="0" fill="#eef3f9" stroke="none" stroke-width="0"/>
<rect x="0.0" y="234.0" width="780.0" height="96.0" rx="0" fill="#f9fafb" stroke="none" stroke-width="0"/>
<rect x="0.0" y="180.0" width="780.0" height="54.0" rx="0" fill="#e8e2d6" stroke="#cfc7b6" stroke-width="1.2"/>
<circle cx="8.0" cy="187.0" r="5.2" fill="#cfc7b6" stroke="#bdb4a1" stroke-width="1"/>
<circle cx="8.0" cy="227.0" r="5.2" fill="#cfc7b6" stroke="#bdb4a1" stroke-width="1"/>
<circle cx="24.0" cy="187.0" r="5.2" fill="#cfc7b6" stroke="#bdb4a1" stroke-width="1"/>
<circle cx="24.0" cy="227.0" r="5.2" fill="#cfc7b6" stroke="#bdb4a1" stroke-width="1"/>
<circle cx="40.0" cy="187.0" r="5.2" fill="#cfc7b6" stroke="#bdb4a1" stroke-width="1"/>
<circle cx="40.0" cy="227.0" r="5.2" fill="#cfc7b6" stroke="#bdb4a1" stroke-width="1"/>
<circle cx="56.0" cy="187.0" r="5.2" fill="#cfc7b6" stroke="#bdb4a1" stroke-width="1"/>
<circle cx="56.0" cy="227.0" r="5.2" fill="#cfc7b6" stroke="#bdb4a1" stroke-width="1"/>
<circle cx="72.0" cy="187.0" r="5.2" fill="#cfc7b6" stroke="#bdb4a1" stroke-width="1"/>
<circle cx="72.0" cy="227.0" r="5.2" fill="#cfc7b6" stroke="#bdb4a1" stroke-width="1"/>
<circle cx="88.0" cy="187.0" r="5.2" fill="#cfc7b6" stroke="#bdb4a1" stroke-width="1"/>
<circle cx="88.0" cy="227.0" r="5.2" fill="#cfc7b6" stroke="#bdb4a1" stroke-width="1"/>
<circle cx="104.0" cy="187.0" r="5.2" fill="#cfc7b6" stroke="#bdb4a1" stroke-width="1"/>
<circle cx="104.0" cy="227.0" r="5.2" fill="#cfc7b6" stroke="#bdb4a1" stroke-width="1"/>
<circle cx="120.0" cy="187.0" r="5.2" fill="#cfc7b6" stroke="#bdb4a1" stroke-width="1"/>
<circle cx="120.0" cy="227.0" r="5.2" fill="#cfc7b6" stroke="#bdb4a1" stroke-width="1"/>
<circle cx="136.0" cy="187.0" r="5.2" fill="#cfc7b6" stroke="#bdb4a1" stroke-width="1"/>
<circle cx="136.0" cy="227.0" r="5.2" fill="#cfc7b6" stroke="#bdb4a1" stroke-width="1"/>
<circle cx="152.0" cy="187.0" r="5.2" fill="#cfc7b6" stroke="#bdb4a1" stroke-width="1"/>
<circle cx="152.0" cy="227.0" r="5.2" fill="#cfc7b6" stroke="#bdb4a1" stroke-width="1"/>
<circle cx="168.0" cy="187.0" r="5.2" fill="#cfc7b6" stroke="#bdb4a1" stroke-width="1"/>
<circle cx="168.0" cy="227.0" r="5.2" fill="#cfc7b6" stroke="#bdb4a1" stroke-width="1"/>
<circle cx="184.0" cy="187.0" r="5.2" fill="#cfc7b6" stroke="#bdb4a1" stroke-width="1"/>
<circle cx="184.0" cy="227.0" r="5.2" fill="#cfc7b6" stroke="#bdb4a1" stroke-width="1"/>
<circle cx="200.0" cy="187.0" r="5.2" fill="#cfc7b6" stroke="#bdb4a1" stroke-width="1"/>
<circle cx="200.0" cy="227.0" r="5.2" fill="#cfc7b6" stroke="#bdb4a1" stroke-width="1"/>
<circle cx="216.0" cy="187.0" r="5.2" fill="#cfc7b6" stroke="#bdb4a1" stroke-width="1"/>
<circle cx="216.0" cy="227.0" r="5.2" fill="#cfc7b6" stroke="#bdb4a1" stroke-width="1"/>
<circle cx="232.0" cy="187.0" r="5.2" fill="#cfc7b6" stroke="#bdb4a1" stroke-width="1"/>
<circle cx="232.0" cy="227.0" r="5.2" fill="#cfc7b6" stroke="#bdb4a1" stroke-width="1"/>
<circle cx="248.0" cy="187.0" r="5.2" fill="#cfc7b6" stroke="#bdb4a1" stroke-width="1"/>
<circle cx="248.0" cy="227.0" r="5.2" fill="#cfc7b6" stroke="#bdb4a1" stroke-width="1"/>
<circle cx="264.0" cy="187.0" r="5.2" fill="#cfc7b6" stroke="#bdb4a1" stroke-width="1"/>
<circle cx="264.0" cy="227.0" r="5.2" fill="#cfc7b6" stroke="#bdb4a1" stroke-width="1"/>
<circle cx="280.0" cy="187.0" r="5.2" fill="#cfc7b6" stroke="#bdb4a1" stroke-width="1"/>
<circle cx="280.0" cy="227.0" r="5.2" fill="#cfc7b6" stroke="#bdb4a1" stroke-width="1"/>
<circle cx="296.0" cy="187.0" r="5.2" fill="#cfc7b6" stroke="#bdb4a1" stroke-width="1"/>
<circle cx="296.0" cy="227.0" r="5.2" fill="#cfc7b6" stroke="#bdb4a1" stroke-width="1"/>
<circle cx="312.0" cy="187.0" r="5.2" fill="#cfc7b6" stroke="#bdb4a1" stroke-width="1"/>
<circle cx="312.0" cy="227.0" r="5.2" fill="#cfc7b6" stroke="#bdb4a1" stroke-width="1"/>
<circle cx="328.0" cy="187.0" r="5.2" fill="#cfc7b6" stroke="#bdb4a1" stroke-width="1"/>
<circle cx="328.0" cy="227.0" r="5.2" fill="#cfc7b6" stroke="#bdb4a1" stroke-width="1"/>
<circle cx="344.0" cy="187.0" r="5.2" fill="#cfc7b6" stroke="#bdb4a1" stroke-width="1"/>
<circle cx="344.0" cy="227.0" r="5.2" fill="#cfc7b6" stroke="#bdb4a1" stroke-width="1"/>
<circle cx="360.0" cy="187.0" r="5.2" fill="#cfc7b6" stroke="#bdb4a1" stroke-width="1"/>
<circle cx="360.0" cy="227.0" r="5.2" fill="#cfc7b6" stroke="#bdb4a1" stroke-width="1"/>
<circle cx="376.0" cy="187.0" r="5.2" fill="#cfc7b6" stroke="#bdb4a1" stroke-width="1"/>
<circle cx="376.0" cy="227.0" r="5.2" fill="#cfc7b6" stroke="#bdb4a1" stroke-width="1"/>
<circle cx="392.0" cy="187.0" r="5.2" fill="#cfc7b6" stroke="#bdb4a1" stroke-width="1"/>
<circle cx="392.0" cy="227.0" r="5.2" fill="#cfc7b6" stroke="#bdb4a1" stroke-width="1"/>
<circle cx="408.0" cy="187.0" r="5.2" fill="#cfc7b6" stroke="#bdb4a1" stroke-width="1"/>
<circle cx="408.0" cy="227.0" r="5.2" fill="#cfc7b6" stroke="#bdb4a1" stroke-width="1"/>
<circle cx="424.0" cy="187.0" r="5.2" fill="#cfc7b6" stroke="#bdb4a1" stroke-width="1"/>
<circle cx="424.0" cy="227.0" r="5.2" fill="#cfc7b6" stroke="#bdb4a1" stroke-width="1"/>
<circle cx="440.0" cy="187.0" r="5.2" fill="#cfc7b6" stroke="#bdb4a1" stroke-width="1"/>
<circle cx="440.0" cy="227.0" r="5.2" fill="#cfc7b6" stroke="#bdb4a1" stroke-width="1"/>
<circle cx="456.0" cy="187.0" r="5.2" fill="#cfc7b6" stroke="#bdb4a1" stroke-width="1"/>
<circle cx="456.0" cy="227.0" r="5.2" fill="#cfc7b6" stroke="#bdb4a1" stroke-width="1"/>
<circle cx="472.0" cy="187.0" r="5.2" fill="#cfc7b6" stroke="#bdb4a1" stroke-width="1"/>
<circle cx="472.0" cy="227.0" r="5.2" fill="#cfc7b6" stroke="#bdb4a1" stroke-width="1"/>
<circle cx="488.0" cy="187.0" r="5.2" fill="#cfc7b6" stroke="#bdb4a1" stroke-width="1"/>
<circle cx="488.0" cy="227.0" r="5.2" fill="#cfc7b6" stroke="#bdb4a1" stroke-width="1"/>
<circle cx="504.0" cy="187.0" r="5.2" fill="#cfc7b6" stroke="#bdb4a1" stroke-width="1"/>
<circle cx="504.0" cy="227.0" r="5.2" fill="#cfc7b6" stroke="#bdb4a1" stroke-width="1"/>
<circle cx="520.0" cy="187.0" r="5.2" fill="#cfc7b6" stroke="#bdb4a1" stroke-width="1"/>
<circle cx="520.0" cy="227.0" r="5.2" fill="#cfc7b6" stroke="#bdb4a1" stroke-width="1"/>
<circle cx="536.0" cy="187.0" r="5.2" fill="#cfc7b6" stroke="#bdb4a1" stroke-width="1"/>
<circle cx="536.0" cy="227.0" r="5.2" fill="#cfc7b6" stroke="#bdb4a1" stroke-width="1"/>
<circle cx="552.0" cy="187.0" r="5.2" fill="#cfc7b6" stroke="#bdb4a1" stroke-width="1"/>
<circle cx="552.0" cy="227.0" r="5.2" fill="#cfc7b6" stroke="#bdb4a1" stroke-width="1"/>
<circle cx="568.0" cy="187.0" r="5.2" fill="#cfc7b6" stroke="#bdb4a1" stroke-width="1"/>
<circle cx="568.0" cy="227.0" r="5.2" fill="#cfc7b6" stroke="#bdb4a1" stroke-width="1"/>
<circle cx="584.0" cy="187.0" r="5.2" fill="#cfc7b6" stroke="#bdb4a1" stroke-width="1"/>
<circle cx="584.0" cy="227.0" r="5.2" fill="#cfc7b6" stroke="#bdb4a1" stroke-width="1"/>
<circle cx="600.0" cy="187.0" r="5.2" fill="#cfc7b6" stroke="#bdb4a1" stroke-width="1"/>
<circle cx="600.0" cy="227.0" r="5.2" fill="#cfc7b6" stroke="#bdb4a1" stroke-width="1"/>
<circle cx="616.0" cy="187.0" r="5.2" fill="#cfc7b6" stroke="#bdb4a1" stroke-width="1"/>
<circle cx="616.0" cy="227.0" r="5.2" fill="#cfc7b6" stroke="#bdb4a1" stroke-width="1"/>
<circle cx="632.0" cy="187.0" r="5.2" fill="#cfc7b6" stroke="#bdb4a1" stroke-width="1"/>
<circle cx="632.0" cy="227.0" r="5.2" fill="#cfc7b6" stroke="#bdb4a1" stroke-width="1"/>
<circle cx="648.0" cy="187.0" r="5.2" fill="#cfc7b6" stroke="#bdb4a1" stroke-width="1"/>
<circle cx="648.0" cy="227.0" r="5.2" fill="#cfc7b6" stroke="#bdb4a1" stroke-width="1"/>
<circle cx="664.0" cy="187.0" r="5.2" fill="#cfc7b6" stroke="#bdb4a1" stroke-width="1"/>
<circle cx="664.0" cy="227.0" r="5.2" fill="#cfc7b6" stroke="#bdb4a1" stroke-width="1"/>
<circle cx="680.0" cy="187.0" r="5.2" fill="#cfc7b6" stroke="#bdb4a1" stroke-width="1"/>
<circle cx="680.0" cy="227.0" r="5.2" fill="#cfc7b6" stroke="#bdb4a1" stroke-width="1"/>
<circle cx="696.0" cy="187.0" r="5.2" fill="#cfc7b6" stroke="#bdb4a1" stroke-width="1"/>
<circle cx="696.0" cy="227.0" r="5.2" fill="#cfc7b6" stroke="#bdb4a1" stroke-width="1"/>
<circle cx="712.0" cy="187.0" r="5.2" fill="#cfc7b6" stroke="#bdb4a1" stroke-width="1"/>
<circle cx="712.0" cy="227.0" r="5.2" fill="#cfc7b6" stroke="#bdb4a1" stroke-width="1"/>
<circle cx="728.0" cy="187.0" r="5.2" fill="#cfc7b6" stroke="#bdb4a1" stroke-width="1"/>
<circle cx="728.0" cy="227.0" r="5.2" fill="#cfc7b6" stroke="#bdb4a1" stroke-width="1"/>
<circle cx="744.0" cy="187.0" r="5.2" fill="#cfc7b6" stroke="#bdb4a1" stroke-width="1"/>
<circle cx="744.0" cy="227.0" r="5.2" fill="#cfc7b6" stroke="#bdb4a1" stroke-width="1"/>
<circle cx="760.0" cy="187.0" r="5.2" fill="#cfc7b6" stroke="#bdb4a1" stroke-width="1"/>
<circle cx="760.0" cy="227.0" r="5.2" fill="#cfc7b6" stroke="#bdb4a1" stroke-width="1"/>
<circle cx="776.0" cy="187.0" r="5.2" fill="#cfc7b6" stroke="#bdb4a1" stroke-width="1"/>
<circle cx="776.0" cy="227.0" r="5.2" fill="#cfc7b6" stroke="#bdb4a1" stroke-width="1"/>
<circle cx="96.0" cy="78.0" r="11.0" fill="#13294B" stroke="none" stroke-width="0"/><text x="96.0" y="82.5" font-size="10.5" fill="#ffffff" text-anchor="middle" font-weight="bold" font-style="normal">H⁺</text>
<circle cx="150.0" cy="106.0" r="11.0" fill="#13294B" stroke="none" stroke-width="0"/><text x="150.0" y="110.5" font-size="10.5" fill="#ffffff" text-anchor="middle" font-weight="bold" font-style="normal">H⁺</text>
<circle cx="214.0" cy="74.0" r="11.0" fill="#13294B" stroke="none" stroke-width="0"/><text x="214.0" y="78.5" font-size="10.5" fill="#ffffff" text-anchor="middle" font-weight="bold" font-style="normal">H⁺</text>
<circle cx="282.0" cy="106.0" r="11.0" fill="#13294B" stroke="none" stroke-width="0"/><text x="282.0" y="110.5" font-size="10.5" fill="#ffffff" text-anchor="middle" font-weight="bold" font-style="normal">H⁺</text>
<circle cx="346.0" cy="76.0" r="11.0" fill="#13294B" stroke="none" stroke-width="0"/><text x="346.0" y="80.5" font-size="10.5" fill="#ffffff" text-anchor="middle" font-weight="bold" font-style="normal">H⁺</text>
<circle cx="410.0" cy="104.0" r="11.0" fill="#13294B" stroke="none" stroke-width="0"/><text x="410.0" y="108.5" font-size="10.5" fill="#ffffff" text-anchor="middle" font-weight="bold" font-style="normal">H⁺</text>
<circle cx="474.0" cy="78.0" r="11.0" fill="#13294B" stroke="none" stroke-width="0"/><text x="474.0" y="82.5" font-size="10.5" fill="#ffffff" text-anchor="middle" font-weight="bold" font-style="normal">H⁺</text>
<circle cx="538.0" cy="106.0" r="11.0" fill="#13294B" stroke="none" stroke-width="0"/><text x="538.0" y="110.5" font-size="10.5" fill="#ffffff" text-anchor="middle" font-weight="bold" font-style="normal">H⁺</text>
<circle cx="600.0" cy="76.0" r="11.0" fill="#13294B" stroke="none" stroke-width="0"/><text x="600.0" y="80.5" font-size="10.5" fill="#ffffff" text-anchor="middle" font-weight="bold" font-style="normal">H⁺</text>
<circle cx="664.0" cy="104.0" r="11.0" fill="#13294B" stroke="none" stroke-width="0"/><text x="664.0" y="108.5" font-size="10.5" fill="#ffffff" text-anchor="middle" font-weight="bold" font-style="normal">H⁺</text>
<circle cx="124.0" cy="138.0" r="11.0" fill="#13294B" stroke="none" stroke-width="0"/><text x="124.0" y="142.5" font-size="10.5" fill="#ffffff" text-anchor="middle" font-weight="bold" font-style="normal">H⁺</text>
<circle cx="252.0" cy="140.0" r="11.0" fill="#13294B" stroke="none" stroke-width="0"/><text x="252.0" y="144.5" font-size="10.5" fill="#ffffff" text-anchor="middle" font-weight="bold" font-style="normal">H⁺</text>
<circle cx="386.0" cy="138.0" r="11.0" fill="#13294B" stroke="none" stroke-width="0"/><text x="386.0" y="142.5" font-size="10.5" fill="#ffffff" text-anchor="middle" font-weight="bold" font-style="normal">H⁺</text>
<circle cx="516.0" cy="140.0" r="11.0" fill="#13294B" stroke="none" stroke-width="0"/><text x="516.0" y="144.5" font-size="10.5" fill="#ffffff" text-anchor="middle" font-weight="bold" font-style="normal">H⁺</text>
<circle cx="640.0" cy="138.0" r="11.0" fill="#13294B" stroke="none" stroke-width="0"/><text x="640.0" y="142.5" font-size="10.5" fill="#ffffff" text-anchor="middle" font-weight="bold" font-style="normal">H⁺</text>
<circle cx="182.0" cy="44.0" r="11.0" fill="#13294B" stroke="none" stroke-width="0"/><text x="182.0" y="48.5" font-size="10.5" fill="#ffffff" text-anchor="middle" font-weight="bold" font-style="normal">H⁺</text>
<circle cx="314.0" cy="42.0" r="11.0" fill="#13294B" stroke="none" stroke-width="0"/><text x="314.0" y="46.5" font-size="10.5" fill="#ffffff" text-anchor="middle" font-weight="bold" font-style="normal">H⁺</text>
<circle cx="446.0" cy="44.0" r="11.0" fill="#13294B" stroke="none" stroke-width="0"/><text x="446.0" y="48.5" font-size="10.5" fill="#ffffff" text-anchor="middle" font-weight="bold" font-style="normal">H⁺</text>
<circle cx="578.0" cy="42.0" r="11.0" fill="#13294B" stroke="none" stroke-width="0"/><text x="578.0" y="46.5" font-size="10.5" fill="#ffffff" text-anchor="middle" font-weight="bold" font-style="normal">H⁺</text>
<circle cx="120.0" cy="298.0" r="11.0" fill="#13294B" stroke="none" stroke-width="0"/><text x="120.0" y="302.5" font-size="10.5" fill="#ffffff" text-anchor="middle" font-weight="bold" font-style="normal">H⁺</text>
<circle cx="300.0" cy="306.0" r="11.0" fill="#13294B" stroke="none" stroke-width="0"/><text x="300.0" y="310.5" font-size="10.5" fill="#ffffff" text-anchor="middle" font-weight="bold" font-style="normal">H⁺</text>
<circle cx="430.0" cy="296.0" r="11.0" fill="#13294B" stroke="none" stroke-width="0"/><text x="430.0" y="300.5" font-size="10.5" fill="#ffffff" text-anchor="middle" font-weight="bold" font-style="normal">H⁺</text>
<circle cx="200.0" cy="262.0" r="11.0" fill="#13294B" stroke="none" stroke-width="0"/><text x="200.0" y="266.5" font-size="10.5" fill="#ffffff" text-anchor="middle" font-weight="bold" font-style="normal">H⁺</text>
<text x="12.0" y="22.0" font-size="13" fill="#5b6470" text-anchor="start" font-weight="bold" font-style="normal">protons piled up on this side</text>
<text x="12.0" y="352.0" font-size="13" fill="#5b6470" text-anchor="start" font-weight="bold" font-style="normal">and scarce on this side</text>
<rect x="186.0" y="172.0" width="56.0" height="70.0" rx="6" fill="#f4f7fb" stroke="#13294B" stroke-width="2.2"/>
<line x1="214.0" y1="264.0" x2="214.0" y2="159.0" stroke="#13294B" stroke-width="2.2" stroke-linecap="round"/><polygon points="214.0,150.0 217.8,159.0 210.2,159.0" fill="#13294B"/>
<text x="214.0" y="384.0" font-size="12.5" fill="#1a1a1a" text-anchor="middle" font-weight="bold" font-style="normal">energy from chemical reactions</text>
<text x="214.0" y="402.0" font-size="12" fill="#5b6470" text-anchor="middle" font-weight="normal" font-style="normal">pushes protons up, against the gradient</text>
<rect x="530.0" y="176.0" width="52.0" height="62.0" rx="6" fill="#ffffff" stroke="#5b6470" stroke-width="1.8"/>
<line x1="556.0" y1="150.0" x2="556.0" y2="247.0" stroke="#13294B" stroke-width="2.2" stroke-linecap="round"/><polygon points="556.0,256.0 552.2,247.0 559.8,247.0" fill="#13294B"/>
<circle cx="556.0" cy="278.0" r="26.0" fill="#f4f7fb" stroke="#FF5F05" stroke-width="2.2"/>
<path d="M 540 278 a 16 16 0 1 1 8 13.9" fill="none" stroke="#b8460a" stroke-width="2.2"/>
<line x1="552.0" y1="294.0" x2="556.1" y2="293.3" stroke="#b8460a" stroke-width="2.2" stroke-linecap="round"/><polygon points="564.0,292.0 556.7,296.6 555.6,290.0" fill="#b8460a"/>
<text x="556.0" y="384.0" font-size="12.5" fill="#1a1a1a" text-anchor="middle" font-weight="bold" font-style="normal">and back down through a protein that spins</text>
<text x="556.0" y="402.0" font-size="12" fill="#5b6470" text-anchor="middle" font-weight="normal" font-style="normal">the spinning pushes phosphate groups together</text>
<circle cx="652.0" cy="278.0" r="22.0" fill="#fff4e8" stroke="#FF5F05" stroke-width="2.0"/>
<text x="652.0" y="283.0" font-size="12" fill="#b8460a" text-anchor="middle" font-weight="bold" font-style="normal">ATP</text>
<line x1="584.0" y1="278.0" x2="620.0" y2="278.0" stroke="#FF5F05" stroke-width="1.8" stroke-linecap="round"/><polygon points="628.0,278.0 620.0,281.4 620.0,274.6" fill="#FF5F05"/>
<text x="768.0" y="22.0" font-size="12.5" fill="#5b6470" text-anchor="end" font-weight="normal" font-style="normal">energy stored as a difference across a barrier</text>
<text x="768.0" y="352.0" font-size="12.5" fill="#5b6470" text-anchor="end" font-weight="normal" font-style="normal">and collected on the way down</text>
</svg>
