<svg xmlns="http://www.w3.org/2000/svg" viewBox="0 0 780 470" width="780" height="470" font-family="Cambria, Calibri, Arial, sans-serif" role="img">
<rect x="0" y="0" width="780" height="470" fill="#ffffff"/>
<rect x="0.0" y="40.0" width="780.0" height="132.0" rx="0" fill="#f7fafd" stroke="none" stroke-width="0"/>
<rect x="0.0" y="226.0" width="780.0" height="130.0" rx="0" fill="#fdf8f4" stroke="none" stroke-width="0"/>
<rect x="0.0" y="172.0" width="780.0" height="54.0" rx="0" fill="#e8e2d6" stroke="#cfc7b6" stroke-width="1.2"/>
<circle cx="8.0" cy="179.0" r="5.2" fill="#cfc7b6" stroke="#bdb4a1" stroke-width="1"/>
<circle cx="8.0" cy="219.0" r="5.2" fill="#cfc7b6" stroke="#bdb4a1" stroke-width="1"/>
<circle cx="24.0" cy="179.0" r="5.2" fill="#cfc7b6" stroke="#bdb4a1" stroke-width="1"/>
<circle cx="24.0" cy="219.0" r="5.2" fill="#cfc7b6" stroke="#bdb4a1" stroke-width="1"/>
<circle cx="40.0" cy="179.0" r="5.2" fill="#cfc7b6" stroke="#bdb4a1" stroke-width="1"/>
<circle cx="40.0" cy="219.0" r="5.2" fill="#cfc7b6" stroke="#bdb4a1" stroke-width="1"/>
<circle cx="56.0" cy="179.0" r="5.2" fill="#cfc7b6" stroke="#bdb4a1" stroke-width="1"/>
<circle cx="56.0" cy="219.0" r="5.2" fill="#cfc7b6" stroke="#bdb4a1" stroke-width="1"/>
<circle cx="72.0" cy="179.0" r="5.2" fill="#cfc7b6" stroke="#bdb4a1" stroke-width="1"/>
<circle cx="72.0" cy="219.0" r="5.2" fill="#cfc7b6" stroke="#bdb4a1" stroke-width="1"/>
<circle cx="88.0" cy="179.0" r="5.2" fill="#cfc7b6" stroke="#bdb4a1" stroke-width="1"/>
<circle cx="88.0" cy="219.0" r="5.2" fill="#cfc7b6" stroke="#bdb4a1" stroke-width="1"/>
<circle cx="104.0" cy="179.0" r="5.2" fill="#cfc7b6" stroke="#bdb4a1" stroke-width="1"/>
<circle cx="104.0" cy="219.0" r="5.2" fill="#cfc7b6" stroke="#bdb4a1" stroke-width="1"/>
<circle cx="120.0" cy="179.0" r="5.2" fill="#cfc7b6" stroke="#bdb4a1" stroke-width="1"/>
<circle cx="120.0" cy="219.0" r="5.2" fill="#cfc7b6" stroke="#bdb4a1" stroke-width="1"/>
<circle cx="136.0" cy="179.0" r="5.2" fill="#cfc7b6" stroke="#bdb4a1" stroke-width="1"/>
<circle cx="136.0" cy="219.0" r="5.2" fill="#cfc7b6" stroke="#bdb4a1" stroke-width="1"/>
<circle cx="152.0" cy="179.0" r="5.2" fill="#cfc7b6" stroke="#bdb4a1" stroke-width="1"/>
<circle cx="152.0" cy="219.0" r="5.2" fill="#cfc7b6" stroke="#bdb4a1" stroke-width="1"/>
<circle cx="168.0" cy="179.0" r="5.2" fill="#cfc7b6" stroke="#bdb4a1" stroke-width="1"/>
<circle cx="168.0" cy="219.0" r="5.2" fill="#cfc7b6" stroke="#bdb4a1" stroke-width="1"/>
<circle cx="184.0" cy="179.0" r="5.2" fill="#cfc7b6" stroke="#bdb4a1" stroke-width="1"/>
<circle cx="184.0" cy="219.0" r="5.2" fill="#cfc7b6" stroke="#bdb4a1" stroke-width="1"/>
<circle cx="200.0" cy="179.0" r="5.2" fill="#cfc7b6" stroke="#bdb4a1" stroke-width="1"/>
<circle cx="200.0" cy="219.0" r="5.2" fill="#cfc7b6" stroke="#bdb4a1" stroke-width="1"/>
<circle cx="216.0" cy="179.0" r="5.2" fill="#cfc7b6" stroke="#bdb4a1" stroke-width="1"/>
<circle cx="216.0" cy="219.0" r="5.2" fill="#cfc7b6" stroke="#bdb4a1" stroke-width="1"/>
<circle cx="232.0" cy="179.0" r="5.2" fill="#cfc7b6" stroke="#bdb4a1" stroke-width="1"/>
<circle cx="232.0" cy="219.0" r="5.2" fill="#cfc7b6" stroke="#bdb4a1" stroke-width="1"/>
<circle cx="248.0" cy="179.0" r="5.2" fill="#cfc7b6" stroke="#bdb4a1" stroke-width="1"/>
<circle cx="248.0" cy="219.0" r="5.2" fill="#cfc7b6" stroke="#bdb4a1" stroke-width="1"/>
<circle cx="264.0" cy="179.0" r="5.2" fill="#cfc7b6" stroke="#bdb4a1" stroke-width="1"/>
<circle cx="264.0" cy="219.0" r="5.2" fill="#cfc7b6" stroke="#bdb4a1" stroke-width="1"/>
<circle cx="280.0" cy="179.0" r="5.2" fill="#cfc7b6" stroke="#bdb4a1" stroke-width="1"/>
<circle cx="280.0" cy="219.0" r="5.2" fill="#cfc7b6" stroke="#bdb4a1" stroke-width="1"/>
<circle cx="296.0" cy="179.0" r="5.2" fill="#cfc7b6" stroke="#bdb4a1" stroke-width="1"/>
<circle cx="296.0" cy="219.0" r="5.2" fill="#cfc7b6" stroke="#bdb4a1" stroke-width="1"/>
<circle cx="312.0" cy="179.0" r="5.2" fill="#cfc7b6" stroke="#bdb4a1" stroke-width="1"/>
<circle cx="312.0" cy="219.0" r="5.2" fill="#cfc7b6" stroke="#bdb4a1" stroke-width="1"/>
<circle cx="328.0" cy="179.0" r="5.2" fill="#cfc7b6" stroke="#bdb4a1" stroke-width="1"/>
<circle cx="328.0" cy="219.0" r="5.2" fill="#cfc7b6" stroke="#bdb4a1" stroke-width="1"/>
<circle cx="344.0" cy="179.0" r="5.2" fill="#cfc7b6" stroke="#bdb4a1" stroke-width="1"/>
<circle cx="344.0" cy="219.0" r="5.2" fill="#cfc7b6" stroke="#bdb4a1" stroke-width="1"/>
<circle cx="360.0" cy="179.0" r="5.2" fill="#cfc7b6" stroke="#bdb4a1" stroke-width="1"/>
<circle cx="360.0" cy="219.0" r="5.2" fill="#cfc7b6" stroke="#bdb4a1" stroke-width="1"/>
<circle cx="376.0" cy="179.0" r="5.2" fill="#cfc7b6" stroke="#bdb4a1" stroke-width="1"/>
<circle cx="376.0" cy="219.0" r="5.2" fill="#cfc7b6" stroke="#bdb4a1" stroke-width="1"/>
<circle cx="392.0" cy="179.0" r="5.2" fill="#cfc7b6" stroke="#bdb4a1" stroke-width="1"/>
<circle cx="392.0" cy="219.0" r="5.2" fill="#cfc7b6" stroke="#bdb4a1" stroke-width="1"/>
<circle cx="408.0" cy="179.0" r="5.2" fill="#cfc7b6" stroke="#bdb4a1" stroke-width="1"/>
<circle cx="408.0" cy="219.0" r="5.2" fill="#cfc7b6" stroke="#bdb4a1" stroke-width="1"/>
<circle cx="424.0" cy="179.0" r="5.2" fill="#cfc7b6" stroke="#bdb4a1" stroke-width="1"/>
<circle cx="424.0" cy="219.0" r="5.2" fill="#cfc7b6" stroke="#bdb4a1" stroke-width="1"/>
<circle cx="440.0" cy="179.0" r="5.2" fill="#cfc7b6" stroke="#bdb4a1" stroke-width="1"/>
<circle cx="440.0" cy="219.0" r="5.2" fill="#cfc7b6" stroke="#bdb4a1" stroke-width="1"/>
<circle cx="456.0" cy="179.0" r="5.2" fill="#cfc7b6" stroke="#bdb4a1" stroke-width="1"/>
<circle cx="456.0" cy="219.0" r="5.2" fill="#cfc7b6" stroke="#bdb4a1" stroke-width="1"/>
<circle cx="472.0" cy="179.0" r="5.2" fill="#cfc7b6" stroke="#bdb4a1" stroke-width="1"/>
<circle cx="472.0" cy="219.0" r="5.2" fill="#cfc7b6" stroke="#bdb4a1" stroke-width="1"/>
<circle cx="488.0" cy="179.0" r="5.2" fill="#cfc7b6" stroke="#bdb4a1" stroke-width="1"/>
<circle cx="488.0" cy="219.0" r="5.2" fill="#cfc7b6" stroke="#bdb4a1" stroke-width="1"/>
<circle cx="504.0" cy="179.0" r="5.2" fill="#cfc7b6" stroke="#bdb4a1" stroke-width="1"/>
<circle cx="504.0" cy="219.0" r="5.2" fill="#cfc7b6" stroke="#bdb4a1" stroke-width="1"/>
<circle cx="520.0" cy="179.0" r="5.2" fill="#cfc7b6" stroke="#bdb4a1" stroke-width="1"/>
<circle cx="520.0" cy="219.0" r="5.2" fill="#cfc7b6" stroke="#bdb4a1" stroke-width="1"/>
<circle cx="536.0" cy="179.0" r="5.2" fill="#cfc7b6" stroke="#bdb4a1" stroke-width="1"/>
<circle cx="536.0" cy="219.0" r="5.2" fill="#cfc7b6" stroke="#bdb4a1" stroke-width="1"/>
<circle cx="552.0" cy="179.0" r="5.2" fill="#cfc7b6" stroke="#bdb4a1" stroke-width="1"/>
<circle cx="552.0" cy="219.0" r="5.2" fill="#cfc7b6" stroke="#bdb4a1" stroke-width="1"/>
<circle cx="568.0" cy="179.0" r="5.2" fill="#cfc7b6" stroke="#bdb4a1" stroke-width="1"/>
<circle cx="568.0" cy="219.0" r="5.2" fill="#cfc7b6" stroke="#bdb4a1" stroke-width="1"/>
<circle cx="584.0" cy="179.0" r="5.2" fill="#cfc7b6" stroke="#bdb4a1" stroke-width="1"/>
<circle cx="584.0" cy="219.0" r="5.2" fill="#cfc7b6" stroke="#bdb4a1" stroke-width="1"/>
<circle cx="600.0" cy="179.0" r="5.2" fill="#cfc7b6" stroke="#bdb4a1" stroke-width="1"/>
<circle cx="600.0" cy="219.0" r="5.2" fill="#cfc7b6" stroke="#bdb4a1" stroke-width="1"/>
<circle cx="616.0" cy="179.0" r="5.2" fill="#cfc7b6" stroke="#bdb4a1" stroke-width="1"/>
<circle cx="616.0" cy="219.0" r="5.2" fill="#cfc7b6" stroke="#bdb4a1" stroke-width="1"/>
<circle cx="632.0" cy="179.0" r="5.2" fill="#cfc7b6" stroke="#bdb4a1" stroke-width="1"/>
<circle cx="632.0" cy="219.0" r="5.2" fill="#cfc7b6" stroke="#bdb4a1" stroke-width="1"/>
<circle cx="648.0" cy="179.0" r="5.2" fill="#cfc7b6" stroke="#bdb4a1" stroke-width="1"/>
<circle cx="648.0" cy="219.0" r="5.2" fill="#cfc7b6" stroke="#bdb4a1" stroke-width="1"/>
<circle cx="664.0" cy="179.0" r="5.2" fill="#cfc7b6" stroke="#bdb4a1" stroke-width="1"/>
<circle cx="664.0" cy="219.0" r="5.2" fill="#cfc7b6" stroke="#bdb4a1" stroke-width="1"/>
<circle cx="680.0" cy="179.0" r="5.2" fill="#cfc7b6" stroke="#bdb4a1" stroke-width="1"/>
<circle cx="680.0" cy="219.0" r="5.2" fill="#cfc7b6" stroke="#bdb4a1" stroke-width="1"/>
<circle cx="696.0" cy="179.0" r="5.2" fill="#cfc7b6" stroke="#bdb4a1" stroke-width="1"/>
<circle cx="696.0" cy="219.0" r="5.2" fill="#cfc7b6" stroke="#bdb4a1" stroke-width="1"/>
<circle cx="712.0" cy="179.0" r="5.2" fill="#cfc7b6" stroke="#bdb4a1" stroke-width="1"/>
<circle cx="712.0" cy="219.0" r="5.2" fill="#cfc7b6" stroke="#bdb4a1" stroke-width="1"/>
<circle cx="728.0" cy="179.0" r="5.2" fill="#cfc7b6" stroke="#bdb4a1" stroke-width="1"/>
<circle cx="728.0" cy="219.0" r="5.2" fill="#cfc7b6" stroke="#bdb4a1" stroke-width="1"/>
<circle cx="744.0" cy="179.0" r="5.2" fill="#cfc7b6" stroke="#bdb4a1" stroke-width="1"/>
<circle cx="744.0" cy="219.0" r="5.2" fill="#cfc7b6" stroke="#bdb4a1" stroke-width="1"/>
<circle cx="760.0" cy="179.0" r="5.2" fill="#cfc7b6" stroke="#bdb4a1" stroke-width="1"/>
<circle cx="760.0" cy="219.0" r="5.2" fill="#cfc7b6" stroke="#bdb4a1" stroke-width="1"/>
<circle cx="776.0" cy="179.0" r="5.2" fill="#cfc7b6" stroke="#bdb4a1" stroke-width="1"/>
<circle cx="776.0" cy="219.0" r="5.2" fill="#cfc7b6" stroke="#bdb4a1" stroke-width="1"/>
<text x="12.0" y="30.0" font-size="13.5" fill="#5b6470" text-anchor="start" font-weight="bold" font-style="normal">outside the cell</text>
<text x="768.0" y="30.0" font-size="12.5" fill="#5b6470" text-anchor="end" font-weight="normal" font-style="normal">sodium concentrated out here</text>
<circle cx="112.0" cy="78.0" r="11.0" fill="#13294B" stroke="none" stroke-width="0"/><text x="112.0" y="82.5" font-size="10.5" fill="#ffffff" text-anchor="middle" font-weight="bold" font-style="normal">Na⁺</text>
<circle cx="168.0" cy="106.0" r="11.0" fill="#13294B" stroke="none" stroke-width="0"/><text x="168.0" y="110.5" font-size="10.5" fill="#ffffff" text-anchor="middle" font-weight="bold" font-style="normal">Na⁺</text>
<circle cx="232.0" cy="74.0" r="11.0" fill="#13294B" stroke="none" stroke-width="0"/><text x="232.0" y="78.5" font-size="10.5" fill="#ffffff" text-anchor="middle" font-weight="bold" font-style="normal">Na⁺</text>
<circle cx="300.0" cy="108.0" r="11.0" fill="#13294B" stroke="none" stroke-width="0"/><text x="300.0" y="112.5" font-size="10.5" fill="#ffffff" text-anchor="middle" font-weight="bold" font-style="normal">Na⁺</text>
<circle cx="364.0" cy="76.0" r="11.0" fill="#13294B" stroke="none" stroke-width="0"/><text x="364.0" y="80.5" font-size="10.5" fill="#ffffff" text-anchor="middle" font-weight="bold" font-style="normal">Na⁺</text>
<circle cx="430.0" cy="104.0" r="11.0" fill="#13294B" stroke="none" stroke-width="0"/><text x="430.0" y="108.5" font-size="10.5" fill="#ffffff" text-anchor="middle" font-weight="bold" font-style="normal">Na⁺</text>
<circle cx="496.0" cy="78.0" r="11.0" fill="#13294B" stroke="none" stroke-width="0"/><text x="496.0" y="82.5" font-size="10.5" fill="#ffffff" text-anchor="middle" font-weight="bold" font-style="normal">Na⁺</text>
<circle cx="560.0" cy="108.0" r="11.0" fill="#13294B" stroke="none" stroke-width="0"/><text x="560.0" y="112.5" font-size="10.5" fill="#ffffff" text-anchor="middle" font-weight="bold" font-style="normal">Na⁺</text>
<circle cx="624.0" cy="76.0" r="11.0" fill="#13294B" stroke="none" stroke-width="0"/><text x="624.0" y="80.5" font-size="10.5" fill="#ffffff" text-anchor="middle" font-weight="bold" font-style="normal">Na⁺</text>
<circle cx="682.0" cy="104.0" r="11.0" fill="#13294B" stroke="none" stroke-width="0"/><text x="682.0" y="108.5" font-size="10.5" fill="#ffffff" text-anchor="middle" font-weight="bold" font-style="normal">Na⁺</text>
<circle cx="140.0" cy="138.0" r="11.0" fill="#13294B" stroke="none" stroke-width="0"/><text x="140.0" y="142.5" font-size="10.5" fill="#ffffff" text-anchor="middle" font-weight="bold" font-style="normal">Na⁺</text>
<circle cx="270.0" cy="140.0" r="11.0" fill="#13294B" stroke="none" stroke-width="0"/><text x="270.0" y="144.5" font-size="10.5" fill="#ffffff" text-anchor="middle" font-weight="bold" font-style="normal">Na⁺</text>
<circle cx="404.0" cy="138.0" r="11.0" fill="#13294B" stroke="none" stroke-width="0"/><text x="404.0" y="142.5" font-size="10.5" fill="#ffffff" text-anchor="middle" font-weight="bold" font-style="normal">Na⁺</text>
<circle cx="536.0" cy="140.0" r="11.0" fill="#13294B" stroke="none" stroke-width="0"/><text x="536.0" y="144.5" font-size="10.5" fill="#ffffff" text-anchor="middle" font-weight="bold" font-style="normal">Na⁺</text>
<circle cx="658.0" cy="138.0" r="11.0" fill="#13294B" stroke="none" stroke-width="0"/><text x="658.0" y="142.5" font-size="10.5" fill="#ffffff" text-anchor="middle" font-weight="bold" font-style="normal">Na⁺</text>
<circle cx="196.0" cy="300.0" r="11.0" fill="#13294B" stroke="none" stroke-width="0"/><text x="196.0" y="304.5" font-size="10.5" fill="#ffffff" text-anchor="middle" font-weight="bold" font-style="normal">Na⁺</text>
<circle cx="438.0" cy="306.0" r="11.0" fill="#13294B" stroke="none" stroke-width="0"/><text x="438.0" y="310.5" font-size="10.5" fill="#ffffff" text-anchor="middle" font-weight="bold" font-style="normal">Na⁺</text>
<circle cx="610.0" cy="298.0" r="11.0" fill="#13294B" stroke="none" stroke-width="0"/><text x="610.0" y="302.5" font-size="10.5" fill="#ffffff" text-anchor="middle" font-weight="bold" font-style="normal">Na⁺</text>
<circle cx="120.0" cy="288.0" r="11.0" fill="#D50032" stroke="none" stroke-width="0"/><text x="120.0" y="292.5" font-size="10.5" fill="#ffffff" text-anchor="middle" font-weight="bold" font-style="normal">K⁺</text>
<circle cx="176.0" cy="320.0" r="11.0" fill="#D50032" stroke="none" stroke-width="0"/><text x="176.0" y="324.5" font-size="10.5" fill="#ffffff" text-anchor="middle" font-weight="bold" font-style="normal">K⁺</text>
<circle cx="244.0" cy="292.0" r="11.0" fill="#D50032" stroke="none" stroke-width="0"/><text x="244.0" y="296.5" font-size="10.5" fill="#ffffff" text-anchor="middle" font-weight="bold" font-style="normal">K⁺</text>
<circle cx="312.0" cy="322.0" r="11.0" fill="#D50032" stroke="none" stroke-width="0"/><text x="312.0" y="326.5" font-size="10.5" fill="#ffffff" text-anchor="middle" font-weight="bold" font-style="normal">K⁺</text>
<circle cx="376.0" cy="292.0" r="11.0" fill="#D50032" stroke="none" stroke-width="0"/><text x="376.0" y="296.5" font-size="10.5" fill="#ffffff" text-anchor="middle" font-weight="bold" font-style="normal">K⁺</text>
<circle cx="466.0" cy="320.0" r="11.0" fill="#D50032" stroke="none" stroke-width="0"/><text x="466.0" y="324.5" font-size="10.5" fill="#ffffff" text-anchor="middle" font-weight="bold" font-style="normal">K⁺</text>
<circle cx="532.0" cy="292.0" r="11.0" fill="#D50032" stroke="none" stroke-width="0"/><text x="532.0" y="296.5" font-size="10.5" fill="#ffffff" text-anchor="middle" font-weight="bold" font-style="normal">K⁺</text>
<circle cx="600.0" cy="322.0" r="11.0" fill="#D50032" stroke="none" stroke-width="0"/><text x="600.0" y="326.5" font-size="10.5" fill="#ffffff" text-anchor="middle" font-weight="bold" font-style="normal">K⁺</text>
<circle cx="664.0" cy="290.0" r="11.0" fill="#D50032" stroke="none" stroke-width="0"/><text x="664.0" y="294.5" font-size="10.5" fill="#ffffff" text-anchor="middle" font-weight="bold" font-style="normal">K⁺</text>
<circle cx="150.0" cy="344.0" r="11.0" fill="#D50032" stroke="none" stroke-width="0"/><text x="150.0" y="348.5" font-size="10.5" fill="#ffffff" text-anchor="middle" font-weight="bold" font-style="normal">K⁺</text>
<circle cx="290.0" cy="346.0" r="11.0" fill="#D50032" stroke="none" stroke-width="0"/><text x="290.0" y="350.5" font-size="10.5" fill="#ffffff" text-anchor="middle" font-weight="bold" font-style="normal">K⁺</text>
<circle cx="420.0" cy="344.0" r="11.0" fill="#D50032" stroke="none" stroke-width="0"/><text x="420.0" y="348.5" font-size="10.5" fill="#ffffff" text-anchor="middle" font-weight="bold" font-style="normal">K⁺</text>
<circle cx="560.0" cy="346.0" r="11.0" fill="#D50032" stroke="none" stroke-width="0"/><text x="560.0" y="350.5" font-size="10.5" fill="#ffffff" text-anchor="middle" font-weight="bold" font-style="normal">K⁺</text>
<circle cx="690.0" cy="344.0" r="11.0" fill="#D50032" stroke="none" stroke-width="0"/><text x="690.0" y="348.5" font-size="10.5" fill="#ffffff" text-anchor="middle" font-weight="bold" font-style="normal">K⁺</text>
<circle cx="206.0" cy="140.0" r="11.0" fill="#D50032" stroke="none" stroke-width="0"/><text x="206.0" y="144.5" font-size="10.5" fill="#ffffff" text-anchor="middle" font-weight="bold" font-style="normal">K⁺</text>
<circle cx="350.0" cy="108.0" r="11.0" fill="#D50032" stroke="none" stroke-width="0"/><text x="350.0" y="112.5" font-size="10.5" fill="#ffffff" text-anchor="middle" font-weight="bold" font-style="normal">K⁺</text>
<circle cx="590.0" cy="140.0" r="11.0" fill="#D50032" stroke="none" stroke-width="0"/><text x="590.0" y="144.5" font-size="10.5" fill="#ffffff" text-anchor="middle" font-weight="bold" font-style="normal">K⁺</text>
<circle cx="96.0" cy="322.0" r="13.0" fill="#ffffff" stroke="#5b6470" stroke-width="1.6"/><text x="96.0" y="326.5" font-size="10.5" fill="#5b6470" text-anchor="middle" font-weight="bold" font-style="normal">A⁻</text>
<circle cx="256.0" cy="350.0" r="13.0" fill="#ffffff" stroke="#5b6470" stroke-width="1.6"/><text x="256.0" y="354.5" font-size="10.5" fill="#5b6470" text-anchor="middle" font-weight="bold" font-style="normal">A⁻</text>
<circle cx="350.0" cy="300.0" r="13.0" fill="#ffffff" stroke="#5b6470" stroke-width="1.6"/><text x="350.0" y="304.5" font-size="10.5" fill="#5b6470" text-anchor="middle" font-weight="bold" font-style="normal">A⁻</text>
<circle cx="500.0" cy="348.0" r="13.0" fill="#ffffff" stroke="#5b6470" stroke-width="1.6"/><text x="500.0" y="352.5" font-size="10.5" fill="#5b6470" text-anchor="middle" font-weight="bold" font-style="normal">A⁻</text>
<circle cx="646.0" cy="322.0" r="13.0" fill="#ffffff" stroke="#5b6470" stroke-width="1.6"/><text x="646.0" y="326.5" font-size="10.5" fill="#5b6470" text-anchor="middle" font-weight="bold" font-style="normal">A⁻</text>
<rect x="229.0" y="168.0" width="34.0" height="62.0" rx="6" fill="#ffffff" stroke="#5b6470" stroke-width="1.8"/>
<line x1="238.0" y1="146.0" x2="238.0" y2="244.0" stroke="#13294B" stroke-width="1.6" stroke-linecap="round"/><polygon points="238.0,252.0 234.6,244.0 241.4,244.0" fill="#13294B"/>
<line x1="254.0" y1="252.0" x2="254.0" y2="154.0" stroke="#D50032" stroke-width="1.6" stroke-linecap="round"/><polygon points="254.0,146.0 257.4,154.0 250.6,154.0" fill="#D50032"/>
<rect x="526.0" y="164.0" width="60.0" height="70.0" rx="6" fill="#f4f7fb" stroke="#6B7280" stroke-width="2.2"/>
<line x1="541.0" y1="252.0" x2="541.0" y2="154.0" stroke="#13294B" stroke-width="2.0" stroke-linecap="round"/><polygon points="541.0,146.0 544.4,154.0 537.6,154.0" fill="#13294B"/>
<line x1="571.0" y1="146.0" x2="571.0" y2="244.0" stroke="#D50032" stroke-width="2.0" stroke-linecap="round"/><polygon points="571.0,252.0 567.6,244.0 574.4,244.0" fill="#D50032"/>
<circle cx="632.0" cy="199.0" r="21.0" fill="#fff4e8" stroke="#FF5F05" stroke-width="2.0"/>
<text x="632.0" y="204.0" font-size="12" fill="#b8460a" text-anchor="middle" font-weight="bold" font-style="normal">ATP</text>
<line x1="610.0" y1="199.0" x2="596.0" y2="199.0" stroke="#FF5F05" stroke-width="1.8" stroke-linecap="round"/><polygon points="588.0,199.0 596.0,195.6 596.0,202.4" fill="#FF5F05"/>
<text x="768.0" y="155.0" font-size="15" fill="#1a1a1a" text-anchor="end" font-weight="bold" font-style="normal">−70 mV</text>
<text x="768.0" y="173.0" font-size="12" fill="#5b6470" text-anchor="end" font-weight="normal" font-style="normal">inside negative</text>
<text x="12.0" y="374.0" font-size="13.5" fill="#5b6470" text-anchor="start" font-weight="bold" font-style="normal">inside the cell</text>
<text x="768.0" y="374.0" font-size="12.5" fill="#5b6470" text-anchor="end" font-weight="normal" font-style="normal">potassium in here, with large anions that cannot leave</text>
<rect x="0.0" y="388.0" width="780.0" height="44.0" rx="0" fill="#ffffff" stroke="none" stroke-width="0"/>
<text x="246.0" y="406.0" font-size="12.5" fill="#1a1a1a" text-anchor="middle" font-weight="bold" font-style="normal">leak channels</text>
<text x="246.0" y="424.0" font-size="12" fill="#5b6470" text-anchor="middle" font-weight="normal" font-style="normal">ions trickle downhill, for free</text>
<text x="556.0" y="406.0" font-size="12.5" fill="#1a1a1a" text-anchor="middle" font-weight="bold" font-style="normal">the sodium-potassium pump</text>
<text x="556.0" y="424.0" font-size="12" fill="#5b6470" text-anchor="middle" font-weight="normal" font-style="normal">pushes both back uphill, and spends</text>
<text x="390.0" y="456.0" font-size="12.5" fill="#5b6470" text-anchor="middle" font-weight="normal" font-style="normal">Ion counts are suggestive, not literal. A cell at rest is spending energy continuously, in order to stay this way.</text>
</svg>
